<svg xmlns="http://www.w3.org/2000/svg" width="32" height="32" viewBox="0 0 32 32">
    <g fill="none">
        <path fill="#FFF" fill-opacity="0" d="M0 0H32V32H0z"/>
        <circle cx="12.693" cy="27.667" r="1.667" fill="#37A0F4"/>
        <circle cx="19.36" cy="27.667" r="1.667" fill="#37A0F4"/>
        <path fill="#37A0F4" d="M24.213 10.667H7.74C6.993 7.507 6.333 4.7 6 3.413c-.102-.428-.48-.734-.92-.746h-.413c-.087-.01-.174-.01-.26 0H2.62c-.701.003-1.272.565-1.287 1.266v.734c-.01.348.12.687.362.938.243.25.576.393.925.395h1.753c.084.01.17.01.254 0l4 16.907.126.54c.196.719.848 1.219 1.594 1.22H21.68c.786.017 1.477-.52 1.653-1.287l2.514-10.667c.116-.497-.002-1.02-.32-1.42-.319-.398-.803-.63-1.314-.626zm-12.94 4.526l-.286 1.24c-.105.438-.497.747-.947.747-.45 0-.842-.309-.947-.747v-.113c-.02-.11-.02-.223 0-.333l.294-1.234c.114-.479.568-.797 1.057-.74.49.056.86.468.863.96-.002.075-.014.149-.034.22zm3.967 0L14 20.58c-.1.496-.565.832-1.068.773-.502-.059-.876-.494-.859-1-.01-.073-.01-.147 0-.22l1.26-5.386c.115-.48.569-.797 1.058-.741.489.056.86.468.862.96.005.076 0 .153-.013.227zm4 0L18 20.58c-.1.496-.565.832-1.068.773-.502-.059-.876-.494-.859-1-.01-.073-.01-.147 0-.22l1.26-5.386c.115-.48.569-.797 1.058-.741.489.056.86.468.862.96.003.077-.004.153-.02.227h.007zm4 0L22 20.58c-.1.496-.565.832-1.068.773-.502-.059-.876-.494-.859-1-.01-.073-.01-.147 0-.22l1.26-5.386c.115-.48.569-.797 1.058-.741.489.056.86.468.862.96.01.076.01.152 0 .227h-.013z"/>
    </g>
</svg>
