<svg xmlns="http://www.w3.org/2000/svg" width="32" height="32" viewBox="0 0 32 32">
    <g fill="none">
        <path fill="#FFF" fill-opacity="0" d="M0 0H32V32H0z"/>
        <path fill="#37A0F4" d="M12.667 26.667c.552 0 1 .447 1 1 0 .552-.448 1-1 1-.553 0-1-.448-1-1 0-.553.447-1 1-1m0-.667c-.674 0-1.282.406-1.54 1.029-.258.623-.116 1.34.361 1.816.477.477 1.194.62 1.816.361.623-.258 1.03-.865 1.03-1.54 0-.92-.747-1.666-1.667-1.666zM19.333 26.667c.553 0 1 .447 1 1 0 .552-.447 1-1 1-.552 0-1-.448-1-1 0-.553.448-1 1-1m0-.667c-.92 0-1.666.746-1.666 1.667 0 .92.746 1.666 1.666 1.666.92 0 1.667-.746 1.667-1.666 0-.92-.746-1.667-1.667-1.667zM4.373 3.333h.107c.062.01.125.01.187 0h.446c.141.002.264.097.3.234.22.933.627 2.666 1.12 4.74l.594 2.52c.069.293.326.503.626.513h16.46c.306 0 .594.14.784.378.191.239.263.55.196.849l-2.526 10.666c-.105.447-.502.764-.96.767H10.373c-.457-.004-.854-.316-.966-.76l-.127-.54-4-16.907c-.1-.35-.462-.554-.813-.46H2.62c-.172-.001-.336-.073-.454-.2C2.05 5.007 1.99 4.84 2 4.667v-.734c.014-.333.287-.596.62-.6h1.753m0-.666H2.62c-.701.003-1.272.565-1.287 1.266v.734c-.01.348.12.687.362.938.243.25.576.393.925.395h1.753c.084.01.17.01.254 0l4 16.907.126.54c.196.719.848 1.219 1.594 1.22H21.68c.786.017 1.477-.52 1.653-1.287l2.514-10.667c.116-.497-.002-1.02-.32-1.42-.319-.398-.803-.63-1.314-.626H7.74C6.993 7.507 6.333 4.7 6 3.413c-.102-.428-.48-.734-.92-.746h-.413c-.087-.01-.174-.01-.26 0h-.034z"/>
        <path fill="#37A0F4" d="M11.273 15.193l-.286 1.24c-.105.438-.497.747-.947.747-.45 0-.842-.309-.947-.747v-.113c-.02-.11-.02-.223 0-.333l.294-1.234c.114-.479.568-.797 1.057-.74.49.056.86.468.863.96-.002.075-.014.149-.034.22zM15.24 15.193L14 20.58c-.1.496-.565.832-1.068.773-.502-.059-.876-.494-.859-1-.01-.073-.01-.147 0-.22l1.26-5.386c.115-.48.569-.797 1.058-.741.489.056.86.468.862.96.005.076 0 .153-.013.227zM19.233 15.193L18 20.58c-.1.496-.565.832-1.068.773-.502-.059-.876-.494-.859-1-.01-.073-.01-.147 0-.22l1.26-5.386c.115-.48.569-.797 1.058-.741.489.056.86.468.862.96.003.077-.004.153-.02.227zM23.253 15.193L22 20.58c-.1.496-.565.832-1.068.773-.502-.059-.876-.494-.859-1-.01-.073-.01-.147 0-.22l1.26-5.386c.115-.48.569-.797 1.058-.741.489.056.86.468.862.96.01.076.01.152 0 .227z"/>
    </g>
</svg>
