<svg xmlns="http://www.w3.org/2000/svg" width="32" height="32" viewBox="0 0 32 32">
    <g fill="none">
        <path fill="#FFF" fill-opacity="0" d="M0 0H32V32H0z"/>
        <path fill="#37A0F4" d="M16 6c1.289 0 2.333 1.045 2.333 2.333 0 1.289-1.044 2.334-2.333 2.334-1.289 0-2.333-1.045-2.333-2.334C13.667 7.045 14.71 6 16 6m0-2c-2.393 0-4.333 1.94-4.333 4.333 0 2.394 1.94 4.334 4.333 4.334 2.393 0 4.333-1.94 4.333-4.334C20.333 5.94 18.393 4 16 4zM16.32 16.667c4.128-.001 7.767 2.71 8.947 6.666H6.733c1.18-3.956 4.819-6.667 8.947-6.666h.667m0-2h-.667c-5.178 0-9.698 3.51-10.98 8.526-.013.089-.013.179 0 .267v.873c0 .54.427.982.967 1h20.666c.553 0 1-.447 1-1v-.873c.014-.088.014-.178 0-.267-1.285-5.029-5.822-8.541-11.013-8.526h.027z"/>
    </g>
</svg>
