<svg xmlns="http://www.w3.org/2000/svg" width="32" height="32" viewBox="0 0 32 32">
    <g fill="none">
        <path fill="#FFF" fill-opacity="0" d="M0.013 0.046H31.360000000000003V31.393H0.013z"/>
        <path fill="#37A0F4" d="M24.163 16v4.245H7.183V16c0-.541.44-.98.98-.98h15.02c.542 0 .98.439.98.98zM7.184 20.898h6.857v7.837H8.274c-.289 0-.566-.115-.77-.32-.205-.204-.32-.482-.32-.77v-6.747zM15.02 20.898H16.326V28.735H15.02zM24.163 20.898v6.746c0 .29-.115.567-.32.771-.204.205-.481.32-.77.32h-5.767v-7.837h6.857z"/>
        <path fill="#37A0F4" d="M25.182 20.245H6.165c-.213-.002-.413-.107-.534-.283-.12-.175-.148-.399-.073-.599l1.39-3.69c.131-.381.485-.642.889-.653H23.51c.413 0 .78.263.914.653l1.392 3.703c.07.203.037.427-.09.6-.126.174-.33.275-.544.269zM15.673 1.306c.541 0 .98.439.98.98v5.087c.004.54.44.976.98.98.246-.01.48-.113.653-.288l1.306-1.273c.181-.183.428-.286.686-.286.257 0 .504.103.685.286.18.186.28.434.281.692.002.259-.099.508-.28.692l-4.624 4.617c-.182.183-.429.286-.686.286-.258 0-.504-.103-.686-.286-.088-.09-.159-.197-.209-.313.05.116.121.222.21.313L10.35 8.176c-.247-.25-.342-.614-.248-.954.093-.34.36-.603.702-.692.34-.089.703.011.95.262l1.306 1.273c.28.28.701.364 1.067.212.366-.151.605-.508.605-.904V2.28c.003-.523.417-.952.94-.973z"/>
    </g>
</svg>
