<svg xmlns="http://www.w3.org/2000/svg" width="32" height="32" viewBox="0 0 32 32">
    <g fill="none">
        <path fill="#FFF" fill-opacity="0" d="M0 0H32V32H0z"/>
        <rect width="26" height="26" x="3" y="3" fill="#37A0F4" rx="8"/>
        <path fill="#37A0F4" d="M21.333 3.333c4.05 0 7.334 3.284 7.334 7.334v10.666c0 4.05-3.284 7.334-7.334 7.334H10.667c-4.05 0-7.334-3.284-7.334-7.334V10.667c0-4.05 3.284-7.334 7.334-7.334h10.666m0-.666H10.667c-4.419 0-8 3.581-8 8v10.666c0 4.419 3.581 8 8 8h10.666c4.419 0 8-3.581 8-8V10.667c0-4.419-3.581-8-8-8z"/>
        <path fill="#FFF" d="M23.527 12.453l-8.494 8.487c-.087.1-.2.174-.326.213-.107.041-.22.066-.334.074-.059.013-.12.013-.18 0-.04.006-.08.006-.12 0-.03.006-.062.006-.093 0-.056-.022-.11-.048-.16-.08-.04-.02-.076-.048-.107-.08l-.066-.054L8.6 16.787c-.44-.334-.526-.96-.193-1.4l.053-.067.053-.067c.366-.355.94-.378 1.334-.053l3.633 3.053c.047.05.101.092.16.127.395.26.918.206 1.253-.127l7.2-7.193c.39-.386 1.017-.386 1.407 0 .38.382.393.997.027 1.393z"/>
    </g>
</svg>
